<?xml version="1.0" encoding="utf-8"?>
<svg version="1.1" id="Livello_1" xmlns="http://www.w3.org/2000/svg" xmlns:xlink="http://www.w3.org/1999/xlink" x="0px" y="0px" width="188px" height="100px" viewBox="0 0 188 100" style="enable-background:new 0 0 188 100;" xml:space="preserve">
<style type="text/css">
	.st0{fill:#5E3327;}
	.st1{fill:#86754D;}
</style>
	<g>
	  <path class="st0" d="M134,63c0.3-0.7-0.2-1.4-0.9-1.7c0.4-0.1,0.3-0.3,0.4-0.5c0.1-0.1,0.2-0.4,0.3-0.5c0.1-0.4-0.3-0.6-0.6-0.6c0.6-0.4,0.6-0.7,0.5-1.3c0-0.1-0.2-0.2-0.2-0.3c0-0.2,0.4-0.6,0.5-0.7c0.6-1.1,0.5-2.3,0-3.4c-0.1-0.3-0.4-0.6-0.5-0.8c0,0-0.1-0.1-0.1-0.2c0-0.1,0.5-0.6,0.6-0.8c0.4-0.8,0.1-1.8-0.5-2.5c-0.5-0.6-1.4-1-2.2-0.7c-0.7,0.2-0.9,0.8-1.3,1.2c-0.5,0.6-0.8,0.6-0.9,1.5c0,0.1,0.1,0.3,0.1,0.4c0,0.1-0.3,0.1-0.4,0.2c-0.2,0.2-0.2,0.4-0.1,0.7c-0.5-0.4-0.9-0.3-1.3,0.1c-0.1,0.1-0.2,0.3-0.3,0.4c-0.1,0.1-0.3,0.1-0.4,0.2c-0.6,0.5-0.6,1-0.2,1.7c-0.8-0.5-1.6-0.3-2.1,0.5c0.2-0.5,0-0.9,0.1-1.3c0-0.3,0.1-0.6,0.1-1c0-0.5-0.2-0.8-0.3-1.2c-0.1-0.5-0.1-0.4,0.1-0.9c0.3-0.8,0.1-1.4-0.1-2.2c-0.2-0.2-0.2-0.4,0-0.6c0.1-0.2,0.1-0.4,0.1-0.6c0-0.3-0.1-0.5-0.1-0.7c0.1-1,0.2-1.7-0.5-2.6c-0.6-0.7-1.4-1.3-2.3-1.4c-0.4-0.1-0.9,0-1.2,0.2c-0.2,0.1-0.3,0.2-0.5,0.3c-0.3,0.3-0.3,0.4-0.7,0.4c-0.7,0.2-1,0.2-1.5,0.7c-0.3,0.3-0.2,0.2-0.6,0.3c-0.3,0.1-0.6,0.2-0.8,0.4c-0.2,0.1-0.3,0.3-0.4,0.5c-0.1,0.3-0.1,0.8-0.3,1c-0.1,0.1-0.5,0.2-0.6,0.4c-0.2,0.2-0.4,0.5-0.5,0.8c-0.2,0.5-0.5,0.8-0.8,1.4c-0.1,0.3,0.1,0.5-0.5,0.5c-0.4,0-0.8-0.1-1.1-0.1c0.5-2.4,1-4.9,1.4-7.4c0-0.3,0.1-0.7,0.1-1c0.1-0.5,0-0.4,0.4-0.7c1.2-0.7,2.4-1.3,3.6-2.1c-2.1-2.6-4.3-5.2-6.7-7.6c-4.5-4.6-9.3-9.1-14.9-12.4c-0.6-0.3-1.7-1.2-2.4-1.2c-0.2,0-0.4,0.2-0.6,0.2c-1,0.4-1.9,1-2.8,1.5c-4.1,2.7-7.6,6.4-10.6,10.2c-1.4,1.7-2.7,3.5-3.9,5.3c-0.9,1.3-2,2.7-2.5,4.2c-0.5,1.4-0.5,2.7,0.4,3.9c0.6,0.8,1.2,1.5,1.8,2.3c0.5-0.6,0.9-1.2,1.4-1.8c0.1,0.6,0.2,1.2,0.3,1.8C77,46,77,46,76.6,46.5c-0.7,0.9-0.3,1.8,0.3,2.6c-0.6,0.3-1.2,0.7-1.5,1.3c-0.2-0.5-0.5-0.6-0.9-0.9c-0.3-0.3-0.1,0.2-0.2-0.4c0-0.2,0.1-0.4,0.1-0.6c0-0.5-0.5-0.6-0.6-1c-0.1-0.3,0.1-0.9,0.1-1.2c-0.3-1.6-1.9-2.2-3.3-2.4c-0.7-0.1-1.5-0.1-2.1,0.3c-0.3,0.2-0.5,0.4-0.7,0.7c-0.1,0.2-0.1,0.4-0.2,0.6c0,0.1-0.1,0.3-0.1,0.4c-0.1,0-0.3,0.1-0.4,0.1c-0.6,0.5-1.1,0.8-1.2,1.6c-0.1,0.3,0.1,0.9,0,1.1c-0.3,0.5-0.9,0-1.2,0c-0.2,0-0.4,0.1-0.6,0.1c-0.4,0-0.8-0.3-1.2-0.4c-0.4-0.1-0.9-0.1-1.2,0.3c-0.5,0.6-0.1,1.2-0.2,1.9c0,0.4-0.3,0.7-0.3,1.1c-0.2,0.8,0,1.6,0.2,2.3c0.2,0.8,0,0.5-0.4,1.3c-0.2,0.3-0.3,0.6-0.3,1c0,0.1,0.1,0.6,0.1,0.7c-0.1,0.2-0.6,0.3-0.8,0.5c-0.2,0.2-0.3,0.5-0.4,0.9c0,0.5,0.3,0.9,0.4,1.4c0.1,0.6-0.7,1.1-0.4,1.9c0.2,0.5,0.7,0.8,1.1,0.9c-5.1,0.7-10.3,1.4-15.3,2.5c0.1,0.7,0.9,0.3,1.4,0.2c1.3-0.3,2.6-0.5,3.9-0.7c4.9-0.8,9.8-1.5,14.7-2.1c15.8-1.8,31.8-2.3,47.6-1.3c5.2,0.4,10.4,0.9,15.6,1.6c2.6,0.4,5.3,0.8,7.9,1.3c1.3,0.3,2.7,0.5,4,0.8c0.6,0.1,1.2,0.3,1.8,0.4c0.4,0.1,0.9,0.4,0.8-0.3C140.2,64.1,137.1,63.5,134,63z M114.9,49.9c0.7-0.1,0.3-1,0.7-1.4c0.2-0.3,0.6-0.1,0.9-0.4c0.2-0.2,0.1-0.4,0.2-0.7c0.2-0.8,0.2-0.9,1-1c0.3,0,0.5,0,0.7-0.3c0.1-0.1,0.1-0.4,0.2-0.5c0.4-0.5,1,0.2,1.6-0.3c0.3-0.3,0.2-0.5,0.6-0.6c0.7-0.2,1.8,0.3,2.1,0.9c0.2,0.4,0.2,0.8,0,1.2c-0.1,0.3-0.4,0.5-0.3,0.8c0,0.3,0.2,0.4,0.2,0.7c0,0.3-0.4,0.4-0.3,0.9c0.1,0.3,0.4,0.5,0.5,0.8c0.3,0.8-0.4,1.1-0.5,1.8c-0.1,0.7,0.5,1,0.6,1.6c0,0.4-0.2,0.7-0.3,1.2c-0.1,0.3,0,0.5,0,0.7c0,0.2-0.2,0.5-0.2,0.8c0,0.2,0,0.4,0.2,0.5c-0.1,0.1-0.2,0.2-0.3,0.3c-0.2,0.4-0.4,0.7-0.4,1.1c-0.8-0.3-1.5-0.1-2,0.5c-0.1,0.1-0.2,0.5-0.3,0.6c-0.2,0.2-0.5,0.1-0.8,0.3c-0.4,0.2-0.5,0.4-1,0.5c-0.3,0-0.6,0-0.9-0.1c-0.2,0-0.5,0-0.7-0.1c0-0.1,0-0.2,0-0.3c-0.2-0.4-0.4-0.8-0.6-1.2c-0.2-0.4-0.3-0.1,0-0.7c0.3-0.7,0.4-1.5,0-2.2c-0.2-0.3-0.9-0.7-1-1c0-0.1,0.1-0.6,0.1-0.8c0-0.4-0.2-0.7-0.4-0.9c-0.2-0.2-0.5-0.4-0.7-0.6c-0.2-0.3,0-0.5,0-0.9c0.4,0.2,0.9,0.7,1.3,0C115.4,51,115.1,49.8,114.9,49.9z M110.7,42.2c0.7-0.2,1.5-0.6,2.2-0.9c-0.4,2.7-0.9,5.5-1.4,8.2c-0.5,2.1-1,4.2-1.6,6.3c-0.3,1.1-0.7,2.2-1,3.3c0,0.1-0.2,0.9-0.4,1.1c-0.2,0.2-1.3-0.1-1.6-0.1c0.7-3.7,0.8-7.5,1-11.2c0.2-3.3,0.3-6.7,0.4-10C109.2,40,110,41.1,110.7,42.2z M84.3,48.1c0-0.3-0.4-3.1-0.2-3.2c0,0.7,1.5,1.6,1.9,2c0.8,0.7,1.5,1.4,2.3,2.1c1.5,1.3,3,2.6,4.4,3.9c-1.1,1.1-2.2,2.2-3.3,3.3c-0.5,0.6-1.1,1.1-1.6,1.7c-0.4,0.4-1.3,1.1-1.5,1.7C85.5,55.8,84.8,52,84.3,48.1z M93.3,29.1c2.8,0,5.3,2.2,5.3,5.1c0,2.9-2.5,5.1-5.3,5.1c-2.8,0-5.3-2.2-5.3-5.1C88,31.3,90.5,29.1,93.3,29.1z M93.3,39.7c0.8,0,1.6-0.2,2.4-0.5c0,1,0.1,2,0.3,3c-1.9,0-3.8,0.1-5.6,0.5c-0.1-1.3-0.2-2.7-0.3-4C91,39.3,92.1,39.7,93.3,39.7z M102.3,43.6c0,0.5-1.6,1.6-1.9,1.9c-0.6,0.6-1.3,1.2-1.9,1.9c-1.4,1.4-2.9,2.8-4.3,4.2c-0.5,0.5-0.5,0.4-0.9-0.1c-0.4-0.3-0.7-0.7-1.1-1c-0.7-0.7-1.5-1.3-2.2-2c-1.5-1.4-3-2.7-4.6-4.1C90.7,42.5,96.8,41.9,102.3,43.6z M93.8,53.8c2.4,2.1,4.7,4.2,7.3,6c-4.4,0.1-8.9,0.1-13.3,0.2C89.8,57.9,91.8,55.8,93.8,53.8z M102,58.8c-2.6-1.7-5-3.8-7.3-5.9c2.7-2.7,5.5-5.4,8.3-8.1C102.8,49.5,102.6,54.2,102,58.8z M102.4,59.1c0.4-2.9,0.5-5.9,0.7-8.9c0.1-1.4,0.2-2.9,0.3-4.3c0-0.5,0-1,0.1-1.5c0.1-0.3,0.3-0.5,0.1-0.8c-0.1-0.4-0.6-0.6-0.9-0.4c0.1-3.7,0.1-7.5,0-11.2c1.1,1.3,2.3,2.6,3.3,3.9c0.7,0.8,1.8,1.8,1.9,2.9c0.1,1.4-0.1,2.9-0.2,4.3c-0.2,4.4-0.4,8.9-0.8,13.3c-0.1,1-0.2,2-0.4,3c0,0.1,0,0.5-0.1,0.6c-0.2,0.2-0.6,0.1-1,0.1c-1,0-2.1-0.1-3.1-0.1C102.6,59.8,102.6,59.4,102.4,59.1z M102.3,31.5c0.1,3.9,0.1,7.8,0,11.6c-1.4-0.4-2.8-0.7-4.3-0.8c-0.3,0-0.6-0.1-0.9-0.1c-0.6,0-0.6,0.1-0.8-0.4c-0.2-0.5-0.1-1.2-0.2-1.7c0-0.3-0.1-0.8-0.1-1.1c0.1-0.3,0.9-0.7,1.2-0.9c0.8-0.7,1.3-1.6,1.6-2.6c0.6-2-0.2-4.2-1.8-5.5c-0.4-0.4-1-0.5-1.4-0.9c-0.3-0.2-0.3-0.2-0.3-0.7c0-0.3,0-0.6,0-0.9c0-1-0.1-2-0.1-3.1C97.7,26.8,100,29.1,102.3,31.5z M94.8,24.1c0,1.6,0,3.2,0.1,4.7c-1.7-0.5-3.6-0.2-5.1,0.8c-0.1-0.8-0.4-1.9-0.1-2.5c0.2-0.5,0.8-1,1.2-1.5c0.8-1,1.5-1.9,2.3-2.9C93.8,23.2,94.3,23.7,94.8,24.1z M89.3,27.8c0.1,0.6,0.2,1.2,0.2,1.8c0,0.5-0.3,0.6-0.6,1c-0.7,0.8-1.2,1.8-1.3,2.9c-0.1,1.1,0.1,2.2,0.6,3.2c0.3,0.5,0.7,0.9,1.1,1.4c0.3,0.3,0.2,0.4,0.3,0.9c0.1,0.9,0.1,1.7,0.2,2.6c0,0.2,0.2,0.8,0.1,1c-0.1,0.3-1.2,0.4-1.6,0.5c-1.5,0.4-3,0.8-4.4,1.5c-0.3-2.7-0.7-5.5-1-8.2c-0.1-0.9,0.8-1.5,1.3-2.2C85.9,32,87.6,29.9,89.3,27.8z M82.4,36.3c0.4,3.8,0.9,7.7,1.4,11.5c0.6,4.1,1,8.4,2.3,12.3c-0.9,0-1.8,0.1-2.7,0.1c-0.4,0-0.9,0-1.3,0.1c-0.6,0-0.6,0-0.9-0.5c-0.5-1-0.9-2.1-1.3-3.2c-0.8-2.6-1.4-5.2-1.9-7.9c-0.2-1.2-0.4-2.3-0.6-3.5c-0.1-0.6-0.5-1.7-0.3-2.3c0.1-0.4,0.7-0.8,0.9-1.1c0.6-0.7,1.1-1.4,1.7-2.1C80.5,38.7,81.5,37.5,82.4,36.3z M68.5,47c0.7-0.1,0.4-1.1,0.8-1.5c0.4-0.4,1.3-0.3,1.8-0.3c0.5,0.1,1.1,0.3,1.3,0.8c0.3,0.6-0.1,1.1,0,1.7c0.1,0.7,0.9,0.5,0.4,1.2c-0.2,0.3-0.6,0.4-0.4,0.8c0.1,0.3,0.4,0.4,0.7,0.5c0.4,0.1,0.8,0,1,0.5c0.1,0.3-0.3,0.5,0,0.9c0.2,0.3,0.5,0.2,0.9,0.2c-1.4,1-0.9,2.5,0.2,3.5c-1.2,0.8-2.6,1.9-2.9,3.4c-0.5-0.7-1.5-0.5-2.1-0.2c0.3-0.8,0.5-1.7,0-2.5c-0.3-0.4-0.8-0.5-1.1-0.8c-0.3-0.3,0-0.9-0.5-1.3c-0.2-0.2-1.3-0.3-1.3-0.4c1.2-1.4,0.5-2.8-1-3.5c0.3-0.4,0.8-0.2,1.1-0.5c0.4-0.4,0.1-0.7,0.1-1.1C67.3,47.8,67.6,47.1,68.5,47z"/>
	  <path class="st1" d="M63.1,17.4c-2.9-5-0.8-11.6,4.5-14c-5.5,0.2-9.9,4.9-10,10.4c0,5.2,4,9.7,9.1,10.4c2.9,0.4,6-0.5,8.2-2.5C70.5,23.3,65.4,21.4,63.1,17.4z"/>
	  <g>
	    <path class="st1" d="M82.9,8c-0.8,0.3-1.8,0.7-2.4,1.4c-0.3,0.4-0.6,0.8-0.8,1.3c-0.2,0.4-0.2,1-0.6,0.7c-0.2-0.2-0.4-0.9-0.6-1.2c-0.2-0.4-0.4-0.7-0.7-1c-0.3-0.3-2.2-1.1-2.2-1.4c0-0.1,1.2-0.6,1.4-0.7c0.4-0.2,0.7-0.4,1-0.8c0.2-0.3,1-2.1,1.2-2.1c0.3,0,1.1,2,1.5,2.4C81.1,7,82.9,7.6,82.9,8z"/>
	  </g>
	  <g>
	    <path class="st1" d="M70.8,31c-0.6,0.4-1.2,0.8-1.6,1.4c-0.2,0.3-0.3,1.7-0.6,1.7c-0.1,0-1.2-1.4-1.5-1.6c-0.3-0.2-1.6-0.3-1.7-0.6c0-0.1,1.4-1.2,1.6-1.4c0.2-0.3,0.3-1.7,0.6-1.7c0.1,0,1.2,1.4,1.5,1.6C69.4,30.5,70.8,30.8,70.8,31z"/>
	  </g>
	  <g>
	    <path class="st1" d="M96.8,3.8c-0.5,0.4-1.1,0.7-1.4,1.3c-0.1,0.2-0.4,1.5-0.6,1.5c-0.3,0-0.9-1.2-1.3-1.4C93.3,5.1,92,4.9,92,4.7c0-0.1,0.7-0.5,0.9-0.6c0.2-0.2,0.4-0.4,0.6-0.7c0.1-0.2,0.4-1.5,0.6-1.5c0.2,0,0.9,1.2,1.3,1.4C95.7,3.5,96.6,3.5,96.8,3.8z"/>
	  </g>
	  <g>
	    <path class="st1" d="M89.9,12.7c-0.5,0.4-1.1,0.7-1.4,1.3c-0.1,0.2-0.4,1.5-0.6,1.5c-0.3,0-0.9-1.2-1.3-1.4c-0.2-0.1-1.5-0.4-1.5-0.6c0-0.1,0.7-0.5,0.9-0.6c0.2-0.2,0.4-0.4,0.6-0.7c0.1-0.2,0.4-1.5,0.6-1.5c0.2,0,0.9,1.2,1.3,1.4C88.8,12.4,89.7,12.4,89.9,12.7z"/>
	  </g>
	  <g>
	    <path class="st1" d="M57.6,32.9c-0.4,0.3-0.8,0.6-1,1c-0.1,0.2-0.2,1-0.4,1c-0.2,0-0.7-0.9-1-1c-0.2-0.1-1-0.2-1-0.4c0-0.1,0.9-0.8,1-1c0.1-0.2,0.2-1,0.4-1c0.1,0,0.7,0.9,0.9,1C56.8,32.6,57.5,32.7,57.6,32.9z"/>
	  </g>
	  <g>
	    <path class="st1" d="M86.7,1.8c-0.4,0.3-0.8,0.6-1.1,1c-0.1,0.2-0.2,1-0.4,1c-0.2,0-0.7-0.9-1-1.1c-0.2-0.1-1-0.2-1-0.4c0-0.1,0.9-0.8,1.1-1c0.1-0.2,0.2-1,0.4-1c0.1,0,0.7,0.9,0.9,1C85.9,1.5,86.6,1.6,86.7,1.8z"/>
	  </g>
	  <g>
	    <path class="st1" d="M65.9,98.7c-0.7,0-0.1,0.5-0.1,0.7c0,0.5-0.7-0.4-0.8-0.6c-0.2-0.6-0.1-1.3-0.3-1.9c-0.3-1.2-1.3-1.7-2.5-1.8c0,0,0,0,0-0.1c1.1-0.1,2.4-0.4,2.7-1.6c0.4-1.3-0.7-2.1-1.9-2.3c-0.3,0-4.6-0.2-4.6,0.1c0,0.2,0.7,0.1,0.8,0.2c0.2,0.2,0.2,0.4,0.2,0.6c0,0.2,0,0.4,0,0.7c0,0.9,0,1.8,0,2.8c0,0.9,0,1.8,0,2.7c0,0.2,0,0.4,0,0.6c0,0.3,0,0.4-0.2,0.5c-0.1,0.1-0.8,0-0.8,0.2c0,0.1,4,0.1,4,0c0-0.1-1-0.1-1.1-0.5c-0.1-0.4,0-0.9,0-1.3c0-0.8,0-1.6,0-2.4c1.7,0,1.3,1.8,1.6,2.9c0.2,0.9,1,1.5,1.9,1.6c0.4,0.1,0.9,0.1,1.2-0.2C66.4,99.3,66.4,98.7,65.9,98.7z M61.4,93c0-0.5-0.2-1.3,0.3-1.6c0.5-0.3,1.1,0.2,1.3,0.6c0.6,1.3-0.1,3-1.6,2.9C61.4,94.4,61.4,93.7,61.4,93z"/>
	    <path class="st1" d="M69.3,99.3c-0.3-0.2-0.1-1.4-0.1-1.7c0-0.9,0-1.8,0-2.7c0-0.8,0-1.7,0-2.5c0-0.1,0-0.4,0-0.5c0.1-0.2,0-0.2,0.2-0.3c0.1-0.1,0.7,0,0.7-0.2c0-0.1-3.7-0.2-3.7,0c0,0.2,0.9-0.1,0.9,0.4c0,1.5,0,2.9,0,4.4c0,0.7,0,1.4,0,2.1c0,0.3,0.1,0.7,0,1c-0.1,0.3-1,0.3-1,0.4c0,0.2,3.9,0.1,3.9,0C70.2,99.3,69.4,99.4,69.3,99.3z"/>
	    <path class="st1" d="M73.6,94.4c-0.7-0.4-1.7-0.9-1.8-1.7c-0.1-1.1,1.2-1.6,2.1-1.2c0.3,0.1,1.6,1.8,1.4,1.8c0.2-0.1,0.1-2.2,0-2.2c-0.1,0-0.2,0.3-0.3,0.4c-0.2,0.1-0.3,0-0.4-0.1c-0.6-0.1-1-0.3-1.6-0.3c-1,0.1-1.9,0.7-2.2,1.7c-0.8,2.6,1.9,3.1,3.3,4.3c0.7,0.6,0.6,1.7-0.2,2.2c-0.9,0.5-2,0.1-2.6-0.7c-0.3-0.4-0.2-1-0.5-1.3c-0.2-0.3-0.2-0.2-0.3,0.1c0,0.2,0,2.4,0,2.4c0.1,0,0.2-0.5,0.6-0.5c0.5,0,1.1,0.4,1.6,0.5c0.9,0.1,1.9-0.1,2.6-0.8c0.7-0.7,0.9-1.8,0.5-2.7C75.4,95.3,74.4,94.9,73.6,94.4z"/>
	    <path class="st1" d="M83.3,91.2c-1.9,0.2-3.8,0-5.6,0c-0.2,0-0.9-0.1-1.1,0c-0.2,0.1-0.3,2.4-0.1,2.4c0.1,0,0.5-1.6,0.8-1.8c0.3-0.3,1.5-0.6,1.7-0.3c0.1,0.2,0,0.8,0,1c0,0.6,0,1.2,0,1.8c0,0.8,0,1.5,0,2.3c0,0.7,0.2,1.7,0,2.3c-0.1,0.2,0,0.3-0.2,0.4c-0.2,0.1-1,0-1,0.2c0,0.1,4.2,0.1,4.2,0c0-0.2-1-0.2-1.1-0.4c-0.1-0.1,0-0.2,0-0.4c-0.1-0.4,0-0.8,0-1.2c0-1.4,0-2.8,0-4.2c0-0.5-0.1-1.1,0-1.5c0-0.1,0-0.3,0-0.3c0.1-0.1,0.9,0,1,0c0.4,0.1,0.8,0.2,1,0.6c0.2,0.3,0.2,1.1,0.5,1.3c0.3,0.3,0.2-0.4,0.1-0.6C83.3,92.3,83.3,91.8,83.3,91.2z"/>
	    <path class="st1" d="M87.8,91.1c-5.2,0-5.2,8.6-0.1,8.7C92.8,99.8,92.9,91.1,87.8,91.1z M89,98.8c-0.3,0.7-1.2,1-1.8,0.6c-0.6-0.4-0.9-1.3-1-1.9c-0.4-1.6-0.5-3.9,0.4-5.3c0.4-0.6,1.1-1,1.8-0.6c0.6,0.3,0.8,1.2,1,1.8C89.6,95,89.7,97.2,89,98.8z"/>
	    <path class="st1" d="M99.5,98.7c-0.7,0-0.1,0.5-0.1,0.7c0,0.5-0.7-0.4-0.8-0.6c-0.2-0.6-0.1-1.3-0.3-1.9c-0.3-1.2-1.3-1.7-2.5-1.8c0,0,0,0,0-0.1c1.1-0.1,2.4-0.4,2.7-1.6c0.4-1.3-0.7-2.1-1.9-2.3c-0.3,0-4.6-0.2-4.6,0.1c0,0.2,0.7,0.1,0.8,0.2c0.2,0.2,0.2,0.4,0.2,0.6c0,0.2,0,0.4,0,0.7c0,0.9,0,1.8,0,2.8c0,0.9,0,1.8,0,2.7c0,0.2,0,0.4,0,0.6c0,0.3,0,0.4-0.2,0.5c-0.1,0.1-0.8,0-0.8,0.2c0,0.1,4,0.1,4,0c0-0.1-1-0.1-1.1-0.5c-0.1-0.4,0-0.9,0-1.3c0-0.8,0-1.6,0-2.4c1.7,0,1.3,1.8,1.6,2.9c0.2,0.9,1,1.5,1.9,1.6c0.4,0.1,0.9,0.1,1.2-0.2C99.9,99.3,99.9,98.7,99.5,98.7z M95,93c0-0.5-0.2-1.3,0.3-1.6c0.5-0.3,1.1,0.2,1.3,0.6c0.6,1.3-0.1,3-1.6,2.9C95,94.4,95,93.7,95,93z"/>
	    <path class="st1" d="M116.1,91.4c0-0.2-2.6-0.2-2.6,0c0,0.2,0.8,0.1,0.9,0.1c0.2,0.1,0.2,0.2,0.2,0.5c0.1,0.5,0,1,0,1.5c0,1.1,0,2.2,0,3.3c-1-1.2-1.9-2.5-2.9-3.7c-0.3-0.4-0.8-1.4-1.3-1.7c-0.2-0.1-2.8-0.1-2.8,0.1c0-0.1,1.3,0.4,1.5,0.6c0.2,0.4,0.2,1,0.2,1.5c0,0.8,0,1.7,0,2.5c0,0.8,0,1.6,0,2.4c0,0.4,0.1,0.8-0.3,1c-0.3,0.2-1.4,0.2-1.7,0c-0.7-0.4-1-2-1.2-2.7c-0.3-0.9-0.7-1.7-1-2.6c-0.1-0.2-0.9-2.9-1.1-2.9c-0.3,0-1.5,3.9-1.6,4.2c-0.2,0.6-0.5,1.3-0.7,1.9c-0.2,0.5-0.4,1.2-0.6,1.7c-0.1,0.2-0.1,0.3-0.3,0.4c-0.1,0.1-0.9,0.1-0.9,0.2c0,0.2,2.5,0.2,2.5,0c0-0.3-1,0.2-1-0.7c0-0.2,0.2-0.5,0.3-0.7c0.2-0.6,0.2-1.1,0.8-1.1c0.4-0.1,0.9,0,1.3,0c0.5,0,0.5-0.1,0.7,0.3c0.2,0.3,0.2,0.7,0.3,1c0.1,0.2,0.3,0.8,0.3,0.9c-0.1,0.3-1.1,0.1-1.1,0.3c0,0.2,3.8,0.1,4.2,0.1c0.6,0,1.1,0,1.7,0c0.2,0,1.3,0.1,0.7-0.2c-0.5-0.2-0.8,0.1-1-0.5c-0.1-0.3,0-0.7,0-1c0-1.6,0-3.2,0-4.8c1.4,1.8,2.8,3.6,4.3,5.4c0.1,0.1,0.9,1.2,1.1,1.2c0.2-0.1,0.1-1.2,0.1-1.3c0-1.5,0-3.1,0-4.6c0-0.5,0-0.9,0-1.4c0-0.2-0.1-0.7,0.1-0.8C115.1,91.5,116.1,91.5,116.1,91.4z M103.3,96.7c-0.4,0-0.8,0-1.2,0c0.4-1,0.6-1.9,1-2.9c0.4,1,0.7,1.9,1,2.9C103.9,96.7,103.6,96.7,103.3,96.7z"/>
	    <path class="st1" d="M123.1,93.2c-0.1-0.7-0.2-1.3-0.2-2c-1.9,0.2-3.8,0-5.6,0c-0.2,0-0.9-0.1-1.1,0c-0.2,0.1-0.3,2.4-0.1,2.4c0.1,0,0.5-1.6,0.8-1.8c0.3-0.3,1.5-0.6,1.7-0.3c0.1,0.2,0,0.8,0,1c0,0.6,0,1.2,0,1.8c0,0.8,0,1.5,0,2.3c0,0.7,0.2,1.7,0,2.3c-0.1,0.2,0,0.3-0.2,0.4c-0.2,0.1-1,0-1,0.2c0,0.1,4.2,0.1,4.2,0c0-0.2-0.9-0.1-1-0.3c-0.2-0.1-0.1-0.3-0.2-0.4c-0.1-0.3,0-0.7,0-1c0-1.3,0-2.5,0-3.8c0-0.5,0-1.1,0-1.6c0-0.1-0.1-0.7,0-0.8c0.3-0.4,1.7,0.2,2,0.5c0.3,0.4,0.2,0.8,0.5,1.2C123,93.5,123.2,93.7,123.1,93.2z"/>
	    <path class="st1" d="M129.9,97.3c-0.2,0-0.3,1-0.4,1.2c-0.2,0.4-0.6,0.7-1,0.8c-0.5,0.1-1.8,0.3-2.3,0.1c-0.3-0.1-0.2-0.4-0.2-0.8c0-0.7,0-1.4,0-2.2c0-0.2-0.1-0.9,0-1.1c0.3-0.3,1.7,0.1,1.9,0.3c0.3,0.3,0.1,1,0.3,1.3c0.3,0.4,0.2-0.5,0.2-0.6c0-0.3,0.1-2.9-0.1-2.9c-0.2,0-0.3,1.2-0.6,1.4c-0.4,0.3-1.3,0.2-1.8,0.2c0-1-0.2-2.3,0-3.3c0-0.1,0-0.3,0-0.3c0.1-0.1,1.1,0,1.3,0c1.2,0,1.7,0.4,2.1,1.5c0.4,1,0.3-0.3,0.2-0.7c0-0.2,0-0.8-0.1-0.9c-0.1-0.2-0.6-0.1-0.8-0.1c-0.7,0-5.6-0.1-5.6,0.2c0,0.2,0.7,0.1,0.8,0.2c0.2,0.1,0.1,0.3,0.1,0.5c0,0.3,0,0.6,0,0.8c0,0.9,0,1.7,0,2.6c0,0.9,0,1.8,0,2.7c0,0.2,0,0.4,0,0.5c0,0.4,0,0.4-0.3,0.6c-0.1,0.1-0.8,0-0.8,0.2c0,0.1,6.4,0.2,6.8,0.2C130,99.5,130.1,97.3,129.9,97.3z"/>
	  </g>
	  <g>
	    <path class="st0" d="M24.8,84.2c-0.9,0-1.3-0.1-1.6-1c-0.4-1-0.7-2-1.1-2.9c-0.6-1.5-1.1-3.1-1.7-4.6c-0.3-0.9-0.6-1.8-1-2.6c-0.1-0.3-1.1-3.8-1.4-3.8c-0.3,0-0.9,2.5-1.1,2.9c-0.5,1.4-1,2.7-1.5,4.1c-0.6,1.6-1.1,3.2-1.7,4.9c-0.3,0.8-0.4,1.7-0.8,2.4c-0.3,0.6-0.8,0.6-1.4,0.7c0-0.9,0-1.8,0-2.7c0-0.2,0.1-0.7-0.1-0.8c-0.5-0.5-0.5,1-0.6,1.3c-0.3,1.2-1,1.7-2.2,1.9c-1.3,0.2-2.8,0.3-4.2,0.1c-0.5,0-0.4,0-0.4-0.5c0-0.6,0-1.1,0-1.7c0-1.7,0-3.4,0-5c0-1.5,0-3,0-4.5c0-0.3,0-0.6,0-0.9c0-0.3-0.1-0.9,0.1-1.1c0.3-0.4,0.9-0.1,1.3-0.3c0.5-0.2,0.2-0.4-0.2-0.4c-0.6-0.1-1.2,0.1-1.8,0.1c-0.7,0-1.4,0-2.1,0c-0.2,0-0.9-0.2-1.1,0C-0.2,70,1.1,70,1.3,70c0.5,0.1,0.6,0.1,0.6,0.6c0,0.3,0,0.7,0,1c0,3.1,0,6.3,0,9.4c0,0.5,0.3,2.4-0.1,2.8c-0.2,0.2-2.3,0.3-1.2,0.6c0.3,0.1,0.8,0,1.1,0c2.8,0,5.6,0,8.4,0.1c1.2,0.1,2-0.2,3.3-0.1c0.5,0,1.5,0.2,2,0c0.6-0.3,0.1-0.4-0.3-0.4c-0.9-0.1-1.5,0-1.2-1.1c0.1-0.5,0.3-0.9,0.4-1.3c0.1-0.4,0.4-1.8,0.7-2c0.3-0.2,1.4,0,1.7,0c0.8,0,1.6-0.1,2.4,0c0.1,0,0.4-0.1,0.5,0c0.3,0.2,0.5,1.6,0.7,2c0.2,0.5,0.6,1.3,0.6,1.8c0,1.1-1.8,0.1-2.3,0.6c-0.5,0.6,1.2,0.4,1.5,0.4c1.3,0,2.6,0,4,0c0.2,0,0.4,0,0.6,0C25.2,84.6,25.7,84.2,24.8,84.2z M15.1,79.2c0.7-2.1,1.4-4.2,2.2-6.2c0.7,2.1,1.5,4.1,2.2,6.2C18,79.2,16.6,79.2,15.1,79.2z"/>
	    <path class="st0" d="M40.6,79.4c-0.3,0-0.5,1.3-0.6,1.6c-0.2,0.7-0.5,1.5-1,2c-0.9,1.1-2.4,1.5-3.7,1.3c-2.8-0.4-4-3.4-4.2-5.9c-0.2-2.5,0-5.8,2-7.7c1.8-1.8,5.1-1,6.1,1.2c0.2,0.6,0.4,1.2,0.5,1.8c0.1,0.4,0.3,1.1,0.6,0.4c0.2-0.5,0-1.6,0-2.2c0-0.5,0.1-1.1,0.1-1.6c0-0.3,0.2-0.9-0.2-0.7c-0.3,0.1-0.2,0.6-0.5,0.8c-0.3,0.2-0.6,0-0.9-0.2c-1.3-0.7-2.4-1-3.9-0.9c-6.1,0.4-8.2,8.3-4.8,12.7c1.9,2.4,5.5,3.6,8.3,2.2c0.3-0.1,0.8-0.6,1-0.7c0.4,0,0.4,0.3,0.6,0.7c0.5,0.8,0.6,0.3,0.5-0.3c0-1.4,0-2.7,0-4.1C40.8,79.5,40.8,79.4,40.6,79.4z"/>
	    <path class="st0" d="M63.3,78c-1.4-1.6-3.6-2-5.1-3.3c-1.4-1.3-1.4-4.3,0.8-4.8c1.1-0.2,2.1,0.2,2.8,1c0.3,0.4,0.6,0.8,0.8,1.3c0.1,0.2,0.2,1.4,0.6,1c0.3-0.2-0.1-1.8-0.1-2.2c0-0.3,0.2-1.2,0.1-1.5c-0.3-0.8-0.4,0.3-0.6,0.4c-0.6,0.4-1.9-0.5-2.5-0.5c-1-0.1-2.1,0.1-2.9,0.7c-1.7,1.3-2.2,4-0.8,5.7c1.4,1.6,3.7,1.9,5.1,3.5c1.4,1.5,1.2,4.4-1,5c-2,0.5-3.7-0.7-4.3-2.6c-0.1-0.4-0.1-1.4-0.4-1.6c-0.4-0.3-0.4,0.4-0.4,0.6c0,1.2,0,2.4-0.1,3.6c-0.6-0.1-1.3,0.1-1.8-0.5c-0.5-0.8-0.8-2-1.1-2.9c-0.6-1.6-1.2-3.2-1.8-4.9c-0.3-0.9-0.7-1.9-1-2.8c-0.1-0.3-1.1-3.8-1.5-3.8c-0.3,0-0.9,2.3-1,2.6c-0.4,1.3-0.9,2.5-1.3,3.8c-0.5,1.5-1,2.9-1.6,4.4c-0.3,0.8-0.5,1.5-0.8,2.3c-0.2,0.6-0.3,1.4-1,1.7c-0.3,0.1-1.4,0-1.5,0.3c-0.1,0.3,1.6,0.1,1.9,0.2c0.7,0,1.4,0.1,2.2,0.1c0.4,0,1-0.1,0.5-0.4c-0.7-0.4-1.9,0.4-1.6-0.9c0.1-0.4,0.3-0.9,0.4-1.3c0.2-0.6,0.4-1.6,0.8-2.1c0.3-0.3,1.1-0.2,1.6-0.2c0.8,0,1.7,0,2.5,0c0.1,0,0.4-0.1,0.5,0c0.3,0.2,0.5,1.5,0.6,1.9c0.2,0.5,0.6,1.4,0.6,1.9c0,1-1.8,0.1-2.3,0.6c-0.5,0.6,1.2,0.4,1.5,0.4c1.4,0,2.7,0,4,0c0.3,0,0.6,0,0.9,0c0.2,0,0.1,0.3,0.4,0.2c0.2-0.1,0.1-0.5,0.2-0.6c0.4-0.5,1.2,0.1,1.8,0.3c0.8,0.3,1.6,0.4,2.4,0.4C63,84.5,65.6,80.7,63.3,78z M45.2,79.2c0.7-2.1,1.4-4.2,2.2-6.2c0.7,2.1,1.5,4.1,2.2,6.2C48.1,79.2,46.6,79.2,45.2,79.2z"/>
	    <path class="st0" d="M77.8,84.2c-0.9,0-1.3-0.1-1.6-1c-0.4-1-0.7-2-1.1-2.9c-0.6-1.5-1.1-3.1-1.7-4.6c-0.3-0.9-0.6-1.8-1-2.6c-0.1-0.3-1.1-3.8-1.4-3.8c-0.2,0-0.6,1.7-0.7,1.9c-0.4,1-0.7,2-1.1,3.1c-0.9,2.4-1.7,4.8-2.5,7.2c-0.3,0.9-0.5,2.4-1.5,2.7c-0.2,0-1.3,0-1.3,0.3c0,0.3,1.4,0.1,1.6,0.1c0.4,0,3,0.4,3.2,0c0.2-0.5-1.6-0.2-1.9-0.5c-0.3-0.4,0.2-1.3,0.3-1.6c0.2-0.6,0.5-2.4,1-2.6c0.4-0.2,1.1,0,1.5,0c0.7,0,1.5,0,2.2,0c0.8,0,0.7-0.1,1,0.7c0.3,0.8,0.5,1.6,0.8,2.4c0.1,0.4,0.4,0.9,0.1,1.1c-0.3,0.3-2.5,0-2.3,0.6c0.2,0.4,3.1,0,3.5,0c0.7,0,1.4,0,2.1,0.1c0.2,0,0.4,0,0.5,0C78.3,84.6,78.7,84.2,77.8,84.2z M68.2,79.2c0.7-2.1,1.4-4.2,2.2-6.2c0.7,2.1,1.5,4.1,2.2,6.2C71.1,79.2,69.6,79.2,68.2,79.2z"/>
	    <path class="st0" d="M94.1,69.6c-0.9,0-1.8,0-2.7,0c-0.2,0-0.8-0.1-1,0c-0.6,0.3,0.3,0.4,0.5,0.4c1.1,0,1.2,0.1,1.2,1.1c0,0.4,0,0.8,0,1.2c0,2.8,0,5.5,0,8.3c-1.1-1.7-2.3-3.4-3.4-5.1c-0.8-1.2-1.7-2.5-2.5-3.7c-0.4-0.6-0.9-1.7-1.4-2.1c-0.4-0.3-1.4,0-1.9,0c-0.3,0-2.6-0.2-2.1,0.3c0.2,0.2,1,0,1.3,0.1c0.4,0.1,0.6,0.3,0.8,0.7c0.3,0.6,0.3,1.2,0.3,1.8c0,2.6,0,5.2,0,7.8c0,1,0.1,2,0,2.9c-0.1,0.5-0.1,0.6-0.5,0.7c-0.3,0.1-1.4-0.1-1.6,0.2c-0.2,0.5,2,0.2,2.3,0.2c0.6,0,1.2,0.1,1.9,0.1c0.6,0,0.8-0.3,0.1-0.4c-0.6-0.1-1.5,0.2-1.6-0.6c-0.2-1.1,0-2.5,0-3.6c0-2.8,0-5.5,0-8.3c2,3,4,6.1,6,9.1c0.6,0.9,1.2,1.8,1.8,2.6c0.2,0.3,0.4,0.7,0.7,1c0.3,0.4,0.4,0.5,0.5-0.1c0.1-0.6,0-1.3,0-1.9c0-0.9,0-1.8,0-2.7c0-2.3,0-4.7,0-7c0-0.6,0-1.2,0-1.8c0-0.7,0-0.8,0.8-0.9c0.2,0,0.4,0,0.6,0C94.6,69.9,94.8,69.6,94.1,69.6z"/>
	    <path class="st0" d="M106.5,80.6c-0.3,0-0.5,2-0.8,2.4c-0.3,0.5-0.8,0.8-1.4,0.9c-1.7,0.2-3.5,0.1-5.2,0.1c0-1,0-2.1,0-3.1c0-0.8,0-1.5,0-2.3c0-0.4-0.2-1.3,0-1.6c0.2-0.3,0.5-0.2,0.9-0.2c0.8,0,2-0.2,2.6,0.5c0.4,0.4,0.5,1,0.5,1.5c0,0.2,0,0.9,0.2,1c0.5,0.3,0.3-2.1,0.3-2.4c0-0.6,0-1.2,0-1.9c0-0.5,0.2-1.3,0.1-1.8c-0.2-0.5-0.3-0.4-0.5,0.1c-0.2,0.6-0.1,1.2-0.4,1.8c-0.4,0.6-1,0.6-1.7,0.7c-0.5,0-1.9,0.3-2.1-0.1c-0.2-0.3,0-1.2,0-1.5c0-0.8,0-1.7,0-2.5c0-0.6-0.1-1.3,0-1.8c0.1-0.5,0.1-0.4,0.7-0.4c1.7,0,4.4-0.5,5.4,1.2c0.3,0.5,0.3,1.6,0.7,2c0.4,0.5,0.4,0,0.4-0.4c0-1.1-0.2-2.2-0.3-3.3c-1.9,0.3-4,0.1-5.9,0.1c-0.9,0-1.8,0-2.7,0c-0.5,0-1,0-1.6,0c-0.2,0-0.5,0-0.5,0.1c-0.1,0.4,1.1,0.2,1.3,0.3c0.5,0.3,0.4,1.2,0.4,1.8c0,2.5,0,5.1,0,7.6c0,1,0,2,0,3c0,0.2,0,0.4,0,0.6c0,1.2-0.2,1-1.3,1.3c-0.3,0.1-0.7,0.1-0.2,0.3c0.3,0.1,0.8,0,1.2,0c1.5,0,2.9,0,4.4,0c1.9,0,3.8,0,5.7,0.1C106.6,84.2,106.9,80.6,106.5,80.6z"/>
	    <path class="st0" d="M118.4,80.6c-0.3,0-0.5,1.9-0.7,2.3c-0.4,0.7-1.2,0.9-2,1c-0.9,0.1-1.8,0.1-2.7,0.1c-0.3,0-1.6,0.2-1.8-0.1c-0.2-0.2,0-1.5,0-1.8c0-1.1,0-2.2,0-3.3c0-2.2,0-4.4,0-6.6c0-0.5-0.1-1.3,0-1.8c0.3-0.8,1-0.1,1.5-0.5c0.6-0.5-1.4-0.4-1.6-0.3c-0.9,0-1.8,0-2.7,0c-0.2,0-1.7-0.1-1,0.4c0.5,0.3,1.1-0.2,1.5,0.4c0.1,0.2,0.1,0.6,0.1,0.9c0,1.9,0,3.8,0,5.8c0,2,0,3.9,0,5.9c0,0.2,0,0.5,0,0.7c-0.2,0.9-1.1,0.2-1.6,0.7c-0.3,0.4,1.2,0.3,1.4,0.3c2.4,0,4.8,0,7.3,0.1c0.2,0,0.4,0,0.6,0c0.5,0,1.1,0.1,1.6,0.1c0.5-0.1,0.4-0.1,0.4-0.7C118.7,83.6,118.9,80.6,118.4,80.6z"/>
	    <path class="st0" d="M131.9,77.5c-0.5-0.3-1.1-0.5-1.7-0.7c-0.3-0.1-0.7-0.1-1-0.1c-0.5-0.1-0.4-0.1,0-0.2c1.3-0.5,2.6-0.6,3.4-2c0.6-1.1,0.5-2.6-0.3-3.6c-0.8-1-2.2-1.2-3.4-1.3c-1.5-0.1-3,0-4.5,0c-0.3,0-1.8-0.2-1.6,0.2c0.2,0.3,1.2,0,1.5,0.3c0.3,0.3,0.3,0.8,0.3,1.2c0,2.8,0,5.6,0,8.3c0,1.1,0,2.2,0,3.3c0,0.2,0,0.6-0.1,0.9c-0.3,0.6-1,0.1-1.5,0.4c-0.6,0.4,1.1,0.3,1.3,0.3c2.1,0,4.5,0.3,6.6-0.4C133.8,83.2,134.6,79.2,131.9,77.5z M126.7,70.1c0.9-0.1,2.3-0.3,3.1,0.4c0.8,0.6,0.9,1.9,0.9,2.9c0,1.2-0.5,2.4-1.7,2.8c-0.4,0.1-1.6,0.4-2,0.2c-0.3-0.1-0.2-0.3-0.2-0.7c0-0.7,0-1.4,0-2.1C126.7,72.4,126.7,71.3,126.7,70.1z M130.4,83.2c-0.6,0.6-1.4,0.9-2.2,0.9c-0.5,0-1.2,0.1-1.5-0.4c-0.2-0.5,0-1.4,0-1.9c0-1.7,0-3.3,0-5c1.5,0,3.3,0,4.2,1.6C131.6,79.7,131.5,82,130.4,83.2z"/>
	    <path class="st0" d="M142.1,69.3c-6.8,0-9,9-4.7,13.4c2.1,2.1,5.6,2.7,8.1,1c2.7-1.8,3.7-5.2,3.2-8.3C148.2,72.2,145.6,69.3,142.1,69.3z M145.3,82.6c-1.3,2.2-4.4,2.4-6.1,0.5c-1.7-2-1.8-5.1-1.6-7.6c0.2-2.1,0.8-5.1,3.2-5.7c2.7-0.7,4.4,1.2,5.1,3.6C146.7,76.3,146.7,80,145.3,82.6z"/>
	    <path class="st0" d="M155.7,75.9c-1-0.5-2.3-1-2.8-2.1c-0.6-1-0.5-2.6,0.4-3.5c1-1,2.7-0.7,3.6,0.3c0.5,0.5,0.8,1,1,1.7c0.1,0.3,0.3,1.4,0.6,0.7c0.1-0.3-0.1-0.9-0.1-1.2c0-0.7,0.2-1.5,0.1-2.2c-0.2-0.9-0.4,0.1-0.6,0.3c-0.4,0.3-1.3-0.2-1.7-0.3c-2.6-0.8-5.3,0.8-5.4,3.7c-0.1,3.2,3,3.8,5.1,5.3c1.2,0.8,1.8,1.9,1.6,3.4c-0.2,1.3-1,2.2-2.3,2.3c-1,0.1-2.1-0.1-2.8-0.9c-0.4-0.3-0.6-0.8-0.8-1.2c-0.3-0.6-0.2-1.3-0.5-1.9c-0.2-0.5-0.4-0.4-0.5,0c-0.1,0.5,0.1,1.1,0.1,1.6c0,0.7-0.2,1.5-0.2,2.3c0,0.2-0.1,0.5,0.2,0.5c0.3,0.1,0.2-0.4,0.3-0.6c0.4-0.6,0.8-0.2,1.5,0.1c0.7,0.3,1.5,0.5,2.3,0.5c1.5,0,3-0.7,3.9-1.9c0.9-1.1,1.2-2.8,0.6-4.1C158.5,77.4,157,76.6,155.7,75.9z"/>
	    <path class="st0" d="M172.7,79.4c-0.3,0-0.5,1.3-0.6,1.6c-0.2,0.7-0.5,1.5-1,2c-0.9,1.1-2.4,1.5-3.7,1.3c-2.8-0.4-4-3.4-4.2-5.9c-0.2-2.5,0-5.8,2-7.7c1.8-1.8,5.1-1,6.1,1.2c0.2,0.6,0.4,1.2,0.5,1.8c0.1,0.4,0.3,1.1,0.6,0.4c0.2-0.5,0-1.6,0-2.2c0-0.5,0.1-1.1,0.1-1.6c0-0.3,0.2-0.9-0.2-0.7c-0.3,0.1-0.2,0.6-0.5,0.8c-0.3,0.2-0.6,0-0.9-0.2c-1.3-0.7-2.4-1-3.9-0.9c-6.1,0.4-8.2,8.3-4.8,12.7c1.9,2.4,5.5,3.6,8.3,2.2c0.3-0.1,0.8-0.6,1-0.7c0.4,0,0.4,0.3,0.6,0.7c0.5,0.8,0.6,0.3,0.5-0.3c0-1.4,0-2.7,0-4.1C172.9,79.5,172.8,79.4,172.7,79.4z"/>
	    <path class="st0" d="M186.2,71.6c-2-2.3-5.3-2.9-8-1.5c-2.8,1.4-4,4.6-3.8,7.6c0.2,3,2,5.9,4.9,6.8c3.1,1,6.1-0.4,7.7-3.2C188.8,78.4,188.4,74.2,186.2,71.6z M184.6,82.6c-1.3,2.2-4.4,2.4-6.1,0.5c-1.7-2-1.8-5.1-1.6-7.6c0.2-2.1,0.8-5.1,3.2-5.7c2.7-0.7,4.4,1.2,5.1,3.6C186,76.3,186,80,184.6,82.6z"/>
	  </g>
	</g>
</svg>
